{"title":"A.Good.Day.to.Die.Hard.2013.RERIP.DVDRip.XviD-SPARKS","uid":8495312,"size":734237320,"categoryP":"video","categoryS":"movies","magnet":"?xt=urn:btih:2b1b3640562f811c483bcc7eadc69c9eb592a6e3&amp;dn=A.Good.Day.to.Die.Hard.2013.RERIP.DVDRip.XviD-SPARKS&amp;tr=udp%3A%2F%2Ftracker.openbittorrent.com%3A80&amp;tr=udp%3A%2F%2Fopen.demonii.com%3A1337&amp;tr=udp%3A%2F%2Ftracker.coppersurfer.tk%3A6969&amp;tr=udp%3A%2F%2Fexodus.desync.com%3A6969","seeders":15,"leechers":0,"uploader":"xxxlavalxxx","files":3,"time":1369125909,"description":"\n\n &lt;a href=&quot;\nhttp://www.imdb.com/title/tt1606378/&quot; rel=&quot;nofollow&quot; target=&quot;_NEW&quot;&gt;\nhttp://www.imdb.com/title/tt1606378/&lt;/a&gt;\n\n\n[b]John McClane travels to Russia to help out his seemingly wayward son, Jack, only to discover that Jack is a CIA operative working to prevent a nuclear-weapons heist, causing the father and son to team up against underworld forces. \n\n\n\nDirector:\n John Moore\n\nWriters:\n Skip Woods, Roderick Thorp (certain original characters)\n\nStars:\n Bruce Willis, Jai Courtney, Sebastian Koch\n\nGenres:\n Action | Crime | Thriller \n\nCountry:\nUSA\n\n [/b]\n\n\n\n\nFormat                                   : AVI\nFormat/Info                              : Audio Video Interleave\nFile size                                : 700 MiB\nDuration                                 : 1h 37mn\nOverall bit rate mode                    : Variable\nOverall bit rate                         : 1 003 Kbps\nWriting application                      : VirtualDubMod 1.5.10.2 (build 2540/release)\nWriting library                          : VirtualDubMod build 2540/release\n\nVideo\nID                                       : 0\nFormat                                   : MPEG-4 Visual\nFormat profile                           : Advanced Simple@L5\nFormat settings, BVOP                    : 2\nFormat settings, QPel                    : No\nFormat settings, GMC                     : No warppoints\nFormat settings, Matrix                  : Default (H.263)\nCodec ID                                 : XVID\nCodec ID/Hint                            : XviD\nDuration                                 : 1h 37mn\nBit rate                                 : 864 Kbps\nWidth                                    : 640 pixels\nHeight                                   : 352 pixels\nDisplay aspect ratio                     : 16:9\nFrame rate                               : 23.976 fps\nColor space                              : YUV\nChroma subsampling                       : 4:2:0\nBit depth                                : 8 bits\nScan type                                : Progressive\nCompression mode                         : Lossy\nBits/(Pixel*Frame)                       : 0.160\nStream size                              : 603 MiB (86%)\nWriting library                          : XviD 61\n\nAudio\nID                                       : 1\nFormat                                   : MPEG Audio\nFormat version                           : Version 1\nFormat profile                           : Layer 3\nMode                                     : Joint stereo\nMode extension                           : MS Stereo\nCodec ID                                 : 55\nCodec ID/Hint                            : MP3\nDuration                                 : 1h 37mn\nBit rate mode                            : Variable\nBit rate                                 : 128 Kbps\nChannel(s)                               : 2 channels\nSampling rate                            : 48.0 KHz\nCompression mode                         : Lossy\nStream size                              : 88.1 MiB (13%)\nAlignment                                : Aligned on interleaves\nInterleave, duration                     : 24 ms (0.58 video frame)\nInterleave, preload duration             : 127 ms\n\n\n\nscreens\n\n\n    &lt;a href=&quot;\thttp://addpix.net/viewer.php?file=23609005929595517967.jpg&quot; rel=&quot;nofollow&quot; target=&quot;_NEW&quot;&gt;\thttp://addpix.net/viewer.php?file=23609005929595517967.jpg&lt;/a&gt;\n    &lt;a href=&quot;\thttp://addpix.net/viewer.php?file=65028129446870989758.jpg&quot; rel=&quot;nofollow&quot; target=&quot;_NEW&quot;&gt;\thttp://addpix.net/viewer.php?file=65028129446870989758.jpg&lt;/a&gt;\n    &lt;a href=&quot;\thttp://addpix.net/viewer.php?file=25422109281672975097.jpg&quot; rel=&quot;nofollow&quot; target=&quot;_NEW&quot;&gt;\thttp://addpix.net/viewer.php?file=25422109281672975097.jpg&lt;/a&gt;\n    &lt;a href=&quot;\thttp://addpix.net/viewer.php?file=54799943359491571724.jpg&quot; rel=&quot;nofollow&quot; target=&quot;_NEW&quot;&gt;\thttp://addpix.net/viewer.php?file=54799943359491571724.jpg&lt;/a&gt;\n    &lt;a href=&quot;\thttp://addpix.net/viewer.php?file=66944212273976325707.jpg&quot; rel=&quot;nofollow&quot; target=&quot;_NEW&quot;&gt;\thttp://addpix.net/viewer.php?file=66944212273976325707.jpg&lt;/a&gt;","torrent":{"xt":"urn:btih:2b1b3640562f811c483bcc7eadc69c9eb592a6e3","amp;dn":"A.Good.Day.to.Die.Hard.2013.RERIP.DVDRip.XviD-SPARKS","amp;tr":["udp%3A%2F%2Ftracker.openbittorrent.com%3A80","udp%3A%2F%2Fopen.demonii.com%3A1337","udp%3A%2F%2Ftracker.coppersurfer.tk%3A6969","udp%3A%2F%2Fexodus.desync.com%3A6969"],"infoHash":"2b1b3640562f811c483bcc7eadc69c9eb592a6e3","infoHashBuffer":{"type":"Buffer","data":[43,27,54,64,86,47,129,28,72,59,204,126,173,198,156,158,181,146,166,227]},"announce":[],"urlList":[]}}